<svg xmlns="http://www.w3.org/2000/svg" version="1.1" xmlns:xlink="http://www.w3.org/1999/xlink" xmlns:svgjs="http://svgjs.dev/svgjs" width="1500" height="969" viewBox="0 0 1500 969"><g transform="matrix(1,0,0,1,0.6360978778404842,0.3923076923076678)"><svg viewBox="0 0 382 247" data-background-color="#21232b" preserveAspectRatio="xMidYMid meet" height="969" width="1500" xmlns="http://www.w3.org/2000/svg" xmlns:xlink="http://www.w3.org/1999/xlink"><g id="tight-bounds" transform="matrix(1,0,0,1,-0.1619929262233768,-0.09999999999999432)"><svg viewBox="0 0 382.32398585244675 247.2" height="247.2" width="382.32398585244675"><g><svg viewBox="0 0 395.52 255.73217380542297" height="247.2" width="382.32398585244675"><g><svg viewBox="0 0 395.52 255.73217380542297" height="255.73217380542297" width="395.52"><g id="textblocktransform"><svg viewBox="0 0 395.52 255.73217380542297" height="255.73217380542297" width="395.52" id="textblock"><g><svg viewBox="0 0 395.52 201.59816735602928" height="201.59816735602928" width="395.52"><g transform="matrix(1,0,0,1,0,0)"><svg width="395.52" viewBox="-1.3000000000000007 -36 161.35000000000005 76.75" height="201.59816735602928" data-palette-color="#f4f3f0"><svg></svg><svg></svg><g class="wordmark-text-0" data-fill-palette-color="primary" id="text-0"><path d="M28.25 0h-9.5l0.3-7.85h-8.35l-2.45 7.85h-9.55l12.85-36h16.5zM19.85-27.25h-3.15l-3.95 12.7h6.55zM39.35-36h9l-6.3 36h-9.05z" fill="#f4f3f0" fill-rule="nonzero" stroke="none" stroke-width="1" stroke-linecap="butt" stroke-linejoin="miter" stroke-miterlimit="10" stroke-dasharray="" stroke-dashoffset="0" font-family="none" font-weight="none" font-size="none" text-anchor="none" style="mix-blend-mode: normal" data-fill-palette-color="primary" opacity="1"></path><path d="M38 4.05l-1.4 7.8h-12.3l-4.95 28.2h-9.05l4.95-28.2h-12.35l1.4-7.8zM55.2 3.7v0c8.033 0 12.05 3.283 12.05 9.85v0c0 1.1-0.117 2.283-0.35 3.55v0l-1.75 10c-0.8 4.633-2.533 8.067-5.2 10.3-2.667 2.233-6.417 3.35-11.25 3.35-4.833 0-8.2-1.117-10.1-3.35v0c-1.3-1.533-1.95-3.65-1.95-6.35v0c0-1.2 0.133-2.517 0.4-3.95v0l1.75-10c1.567-8.933 7.033-13.4 16.4-13.4zM50.05 33v0c1.667 0 3-0.433 4-1.3 1-0.867 1.7-2.467 2.1-4.8v0l1.7-9.6c0.1-0.667 0.15-1.267 0.15-1.8v0c0-2.7-1.367-4.05-4.1-4.05v0c-3.433 0.067-5.483 2.017-6.15 5.85v0l-1.7 9.6c-0.133 0.833-0.2 1.7-0.2 2.6v0c0 2.333 1.4 3.5 4.2 3.5zM88.4 3.7v0c8.033 0 12.05 3.283 12.05 9.85v0c0 1.1-0.117 2.283-0.35 3.55v0l-1.75 10c-0.8 4.633-2.533 8.067-5.2 10.3-2.667 2.233-6.417 3.35-11.25 3.35-4.833 0-8.2-1.117-10.1-3.35v0c-1.3-1.533-1.95-3.65-1.95-6.35v0c0-1.2 0.133-2.517 0.4-3.95v0l1.75-10c1.567-8.933 7.033-13.4 16.4-13.4zM83.25 33v0c1.667 0 3-0.433 4-1.3 1-0.867 1.7-2.467 2.1-4.8v0l1.7-9.6c0.1-0.667 0.15-1.267 0.15-1.8v0c0-2.7-1.367-4.05-4.1-4.05v0c-3.433 0.067-5.483 2.017-6.15 5.85v0l-1.7 9.6c-0.133 0.833-0.2 1.7-0.2 2.6v0c0 2.333 1.4 3.5 4.2 3.5zM126.35 32.25l-1.4 7.8h-22.8l6.35-36h9l-4.95 28.2zM138.5 29.8v0c0 2.3 1.657 3.45 4.97 3.45 3.32 0 4.98-1.033 4.98-3.1v0c0-1.1-0.567-2-1.7-2.7-1.133-0.7-2.507-1.283-4.12-1.75-1.62-0.467-3.237-1.01-4.85-1.63-1.62-0.613-2.997-1.58-4.13-2.9-1.133-1.313-1.7-2.953-1.7-4.92v0c0-8.367 5.383-12.55 16.15-12.55v0c3.933 0 6.91 0.74 8.93 2.22 2.013 1.487 3.02 3.547 3.02 6.18v0c0 0.967-0.123 1.89-0.37 2.77-0.253 0.887-0.513 1.513-0.78 1.88v0l-0.4 0.6h-8.85c0.733-0.767 1.1-1.733 1.1-2.9v0c0-2.167-1.417-3.25-4.25-3.25v0c-3.567 0-5.35 1.133-5.35 3.4v0c0 1.133 0.567 2.033 1.7 2.7 1.133 0.667 2.507 1.19 4.12 1.57 1.62 0.387 3.247 0.863 4.88 1.43 1.633 0.567 3.017 1.507 4.15 2.82 1.133 1.32 1.7 3.03 1.7 5.13v0c0 4.233-1.267 7.373-3.8 9.42-2.533 2.053-6.433 3.08-11.7 3.08-5.267 0-8.867-0.933-10.8-2.8v0c-1.433-1.4-2.15-3.333-2.15-5.8v0c0-0.933 0.1-1.95 0.3-3.05v0l0.15-0.8h9l-0.1 0.6c-0.067 0.333-0.1 0.633-0.1 0.9z" fill="#f4f3f0" fill-rule="nonzero" stroke="none" stroke-width="1" stroke-linecap="butt" stroke-linejoin="miter" stroke-miterlimit="10" stroke-dasharray="" stroke-dashoffset="0" font-family="none" font-weight="none" font-size="none" text-anchor="none" style="mix-blend-mode: normal" data-fill-palette-color="primary" opacity="1"></path></g></svg></g></svg></g><g transform="matrix(1,0,0,1,75.54432,223.6119216113013)"><svg viewBox="0 0 244.43135999999998 32.12025219412166" height="32.12025219412166" width="244.43135999999998"><g transform="matrix(1,0,0,1,0,0)"><svg width="244.43135999999998" viewBox="-0.1 -37.7 292.56 38.45" height="32.12025219412166" data-palette-color="#f4f3f0"><path d="M24.95 0L18.5 0 16.8-8.1 7.9-8.1 6.25 0-0.1 0 8.6-34.55 16.3-34.55 24.95 0ZM12.35-29.7L8.9-12.9 15.85-12.9 12.35-29.7ZM33.3 0.75Q30.6 0.75 29.02-0.93 27.45-2.6 27.45-5.4L27.45-5.4 27.45-37.05 33.6-37.7 33.6-5.65Q33.6-5 33.9-4.6 34.2-4.2 34.8-4.2L34.8-4.2Q35.15-4.2 35.47-4.3 35.8-4.4 35.9-4.4L35.9-4.4 37.1-0.2Q35.4 0.75 33.3 0.75L33.3 0.75ZM45.75 0.75Q43.05 0.75 41.47-0.93 39.9-2.6 39.9-5.4L39.9-5.4 39.9-37.05 46.05-37.7 46.05-5.65Q46.05-5 46.34-4.6 46.65-4.2 47.25-4.2L47.25-4.2Q47.59-4.2 47.92-4.3 48.25-4.4 48.34-4.4L48.34-4.4 49.55-0.2Q47.84 0.75 45.75 0.75L45.75 0.75ZM88.09-34.55L93.99-34.55 89.14 0 80.79 0 77.09-27.8 73.24 0 65.04 0 60.29-34.55 66.44-34.55 69.64-5.1 73.79-34.55 80.54-34.55 84.59-5.1 88.09-34.55ZM106.94-27.15Q111.94-27.15 114.71-23.65 117.49-20.15 117.49-13.25L117.49-13.25Q117.49-6.65 114.69-2.95 111.89 0.75 106.94 0.75L106.94 0.75Q101.99 0.75 99.19-2.88 96.39-6.5 96.39-13.25L96.39-13.25Q96.39-19.95 99.19-23.55 101.99-27.15 106.94-27.15L106.94-27.15ZM106.94-22.5Q104.79-22.5 103.79-20.38 102.79-18.25 102.79-13.25L102.79-13.25Q102.79-8.2 103.79-6.08 104.79-3.95 106.94-3.95L106.94-3.95Q109.09-3.95 110.09-6.08 111.09-8.2 111.09-13.25L111.09-13.25Q111.09-18.3 110.09-20.4 109.09-22.5 106.94-22.5L106.94-22.5ZM133.69-27.1Q134.84-27.1 135.74-26.75L135.74-26.75 134.74-20.85Q133.74-21.1 132.89-21.1L132.89-21.1Q130.99-21.1 129.89-19.45 128.79-17.8 128.19-14.55L128.19-14.55 128.19 0 122.04 0 122.04-26.45 127.39-26.45 127.84-21.85Q129.69-27.1 133.69-27.1L133.69-27.1ZM144.18 0.75Q141.48 0.75 139.91-0.93 138.33-2.6 138.33-5.4L138.33-5.4 138.33-37.05 144.48-37.7 144.48-5.65Q144.48-5 144.78-4.6 145.08-4.2 145.68-4.2L145.68-4.2Q146.03-4.2 146.36-4.3 146.68-4.4 146.78-4.4L146.78-4.4 147.98-0.2Q146.28 0.75 144.18 0.75L144.18 0.75ZM163.98-37.7L170.13-37.05 170.13 0 164.68 0 164.38-3.05Q162.03 0.75 158.33 0.75L158.33 0.75Q154.23 0.75 152.06-2.93 149.88-6.6 149.88-13.2L149.88-13.2Q149.88-17.4 151-20.58 152.13-23.75 154.13-25.45 156.13-27.15 158.73-27.15L158.73-27.15Q161.93-27.15 163.98-24.5L163.98-24.5 163.98-37.7ZM160.08-3.9Q161.23-3.9 162.16-4.7 163.08-5.5 163.98-7L163.98-7 163.98-19.85Q162.38-22.55 160.33-22.55L160.33-22.55Q156.28-22.55 156.28-13.25L156.28-13.25Q156.28-8.2 157.28-6.05 158.28-3.9 160.08-3.9L160.08-3.9ZM207.53 0L201.13 0 201.13-15.5 192.18-15.5 192.18 0 185.83 0 185.83-34.55 192.18-34.55 192.18-20.6 201.13-20.6 201.13-34.55 207.53-34.55 207.53 0ZM232.17-13.85Q232.17-13.4 232.02-11.3L232.02-11.3 218.37-11.3Q218.57-7.2 219.8-5.58 221.02-3.95 223.27-3.95L223.27-3.95Q224.82-3.95 226.07-4.48 227.32-5 228.77-6.15L228.77-6.15 231.32-2.65Q227.82 0.75 222.92 0.75L222.92 0.75Q217.72 0.75 214.95-2.85 212.17-6.45 212.17-13L212.17-13Q212.17-19.55 214.82-23.35 217.47-27.15 222.32-27.15L222.32-27.15Q226.97-27.15 229.57-23.78 232.17-20.4 232.17-13.85L232.17-13.85ZM226.17-15.3L226.17-15.65Q226.17-19.4 225.27-21.13 224.37-22.85 222.37-22.85L222.37-22.85Q220.52-22.85 219.55-21.18 218.57-19.5 218.37-15.3L218.37-15.3 226.17-15.3ZM248.12-27.1Q249.27-27.1 250.17-26.75L250.17-26.75 249.17-20.85Q248.17-21.1 247.32-21.1L247.32-21.1Q245.42-21.1 244.32-19.45 243.22-17.8 242.62-14.55L242.62-14.55 242.62 0 236.47 0 236.47-26.45 241.82-26.45 242.27-21.85Q244.12-27.1 248.12-27.1L248.12-27.1ZM271.87-13.85Q271.87-13.4 271.72-11.3L271.72-11.3 258.07-11.3Q258.27-7.2 259.49-5.58 260.72-3.95 262.97-3.95L262.97-3.95Q264.52-3.95 265.77-4.48 267.02-5 268.47-6.15L268.47-6.15 271.02-2.65Q267.52 0.75 262.62 0.75L262.62 0.75Q257.42 0.75 254.64-2.85 251.87-6.45 251.87-13L251.87-13Q251.87-19.55 254.52-23.35 257.17-27.15 262.02-27.15L262.02-27.15Q266.67-27.15 269.27-23.78 271.87-20.4 271.87-13.85L271.87-13.85ZM265.87-15.3L265.87-15.65Q265.87-19.4 264.97-21.13 264.07-22.85 262.07-22.85L262.07-22.85Q260.22-22.85 259.24-21.18 258.27-19.5 258.07-15.3L258.07-15.3 265.87-15.3ZM285.36-34.55L291.91-34.55 291.06-12.1 286.21-12.1 285.36-34.55ZM288.66-7.05Q290.31-7.05 291.39-5.9 292.46-4.75 292.46-3.15L292.46-3.15Q292.46-1.55 291.39-0.4 290.31 0.75 288.66 0.75L288.66 0.75Q287.01 0.75 285.94-0.4 284.86-1.55 284.86-3.15L284.86-3.15Q284.86-4.75 285.94-5.9 287.01-7.05 288.66-7.05L288.66-7.05Z" opacity="1" transform="matrix(1,0,0,1,0,0)" fill="#f4f3f0" class="slogan-text-1" data-fill-palette-color="secondary" id="text-1"></path></svg></g></svg></g></svg></g></svg></g></svg></g><defs></defs></svg><rect width="382.32398585244675" height="247.2" fill="none" stroke="none" visibility="hidden"></rect></g></svg></g></svg>