<svg xmlns="http://www.w3.org/2000/svg" version="1.1" xmlns:xlink="http://www.w3.org/1999/xlink" xmlns:svgjs="http://svgjs.dev/svgjs" width="128" height="128" viewBox="0 0 128 128"><g transform="matrix(0.8046875,0,0,0.8046875,12.333870967741937,37.52936678232286)"><svg viewBox="0 0 155 81" data-background-color="#21232b" preserveAspectRatio="xMidYMid meet" height="66" width="128" xmlns="http://www.w3.org/2000/svg" xmlns:xlink="http://www.w3.org/1999/xlink"><g id="tight-bounds" transform="matrix(1,0,0,1,0.25,-0.12819576333089344)"><svg viewBox="0 0 154.5 81.25639152666179" height="81.25639152666179" width="154.5"><g><svg viewBox="0 0 154.5 81.25639152666179" height="81.25639152666179" width="154.5"><g><svg viewBox="0 0 154.5 81.25639152666179" height="81.25639152666179" width="154.5"><g id="textblocktransform"><svg viewBox="0 0 154.5 81.25639152666179" height="81.25639152666179" width="154.5" id="textblock"><g><svg viewBox="0 0 154.5 81.25639152666179" height="81.25639152666179" width="154.5"><g transform="matrix(1,0,0,1,0,0)"><svg width="154.5" viewBox="-1.3 -36 68.45 36" height="81.25639152666179" data-palette-color="#2f84ff"><path d="M28.25 0L18.75 0 19.05-7.85 10.7-7.85 8.25 0-1.3 0 11.55-36 28.05-36 28.25 0ZM19.85-27.25L16.7-27.25 12.75-14.55 19.3-14.55 19.85-27.25ZM67.15-36L65.75-28.2 53.45-28.2 48.5 0 39.45 0 44.4-28.2 32.05-28.2 33.45-36 67.15-36Z" opacity="1" transform="matrix(1,0,0,1,0,0)" fill="#2f84ff" class="wordmark-text-0" data-fill-palette-color="primary" id="text-0"></path></svg></g></svg></g></svg></g></svg></g></svg></g><defs></defs></svg><rect width="154.5" height="81.25639152666179" fill="none" stroke="none" visibility="hidden"></rect></g></svg></g></svg>